inDegrees=no
num_controls=7
num_derivatives=13
num_iterations=133
num_multipliers=7
num_parameters=0
num_slacks=7
num_states=26
objective=0.516801
objective_accelerations=0.039880
objective_balance=0.002218
objective_effort=0.043994
objective_height=0.419083
objective_ligament=0.011626
solver_duration=1765.501622
status=Solve_Succeeded
success=true
DataType=double
version=3
OpenSimVersion=4.5
endheader
time	/jointset/ground_pelvis/pelvis_tilt/value	/jointset/ground_pelvis/pelvis_tx/value	/jointset/ground_pelvis/pelvis_ty/value	/jointset/hip_l/hip_flexion_l/value	/jointset/hip_l/hip_adduction_l/value	/jointset/hip_l/hip_rotation_l/value	/jointset/back/lumbar_extension/value	/jointset/patellofemoral_l/patellar_flexion_l/value	/jointset/knee_l/knee_flexion_l/value	/jointset/knee_l/knee_adduction_l/value	/jointset/knee_l/knee_rotation_l/value	/jointset/ankle_l/ankle_angle_l/value	/jointset/subtalar_l/subtalar_angle_l/value	/jointset/ground_pelvis/pelvis_tilt/speed	/jointset/ground_pelvis/pelvis_tx/speed	/jointset/ground_pelvis/pelvis_ty/speed	/jointset/hip_l/hip_flexion_l/speed	/jointset/hip_l/hip_adduction_l/speed	/jointset/hip_l/hip_rotation_l/speed	/jointset/back/lumbar_extension/speed	/jointset/patellofemoral_l/patellar_flexion_l/speed	/jointset/knee_l/knee_flexion_l/speed	/jointset/knee_l/knee_adduction_l/speed	/jointset/knee_l/knee_rotation_l/speed	/jointset/ankle_l/ankle_angle_l/speed	/jointset/subtalar_l/subtalar_angle_l/speed	/forceset/tau_hip_flexion_l	/forceset/tau_hip_adduction_l	/forceset/tau_hip_rotation_l	/forceset/tau_knee_flexion_l	/forceset/tau_ankle_angle_l	/forceset/tau_subtalar_angle_l	/forceset/tau_lumbar_extension	lambda_cid13_p0	lambda_cid13_p1	lambda_cid13_p2	lambda_cid13_p3	lambda_cid13_p4	lambda_cid13_p5	lambda_cid14_p0	/jointset/ground_pelvis/pelvis_tilt/accel	/jointset/ground_pelvis/pelvis_tx/accel	/jointset/ground_pelvis/pelvis_ty/accel	/jointset/hip_l/hip_flexion_l/accel	/jointset/hip_l/hip_adduction_l/accel	/jointset/hip_l/hip_rotation_l/accel	/jointset/back/lumbar_extension/accel	/jointset/patellofemoral_l/patellar_flexion_l/accel	/jointset/knee_l/knee_flexion_l/accel	/jointset/knee_l/knee_adduction_l/accel	/jointset/knee_l/knee_rotation_l/accel	/jointset/ankle_l/ankle_angle_l/accel	/jointset/subtalar_l/subtalar_angle_l/accel	gamma_cid13_p0	gamma_cid13_p1	gamma_cid13_p2	gamma_cid13_p3	gamma_cid13_p4	gamma_cid13_p5	gamma_cid14_p0
0.5	-0.1223869510991116	-0.05688282149553359	0.8240718552654632	0.8945500041767941	-0.3236024397041984	-0.123466435311474	-0.7779891746780833	0.787022138258029	0.7870221382584144	-0.1087108545438548	-0.1745216624703421	0.06889650311782279	-0.007527559495394003	-0.2123147205069513	-0.20880379615314	-0.3411081399392357	1.5033400195467	-0.04088351584261316	0.4559330574982018	-0.840541101187972	1.433392732033842	1.433392732033509	0.1318438806816101	0.0001862554219537847	0.2330462749696462	0.02910538002026819	-0.281867177279917	0.01777631251938614	-0.003337937433641682	-0.2107367263281897	0.1161029455626054	0.0516073180270638	0.3293203111948247	-7.16345617310873	-22.615323378208	4.814906379293384	-9.666752038888944	-702.6890054848559	-78.96532668437324	-14.94849215768271	0.2767155801754796	0.6484768017014326	-0.1198263232770812	-1.414550674076512	0.2216374722854207	-0.3405504755605433	1.669762462326214	-1.094468713571177	-1.094468713571193	-0.285560027700076	0.02484364784165227	-0.004397761051850445	0.2409043394377819	-6.011612559557206e-08	-4.7696191439464e-07	1.010706924577263e-07	-4.998865430023946e-08	-8.710582901518409e-08	-4.834199862688304e-08	-8.269550836817224e-08
0.51	-0.1244959555357989	-0.05893831784893322	0.8206555267669945	0.9095104270714616	-0.3240006288745475	-0.1189252948446768	-0.7863101489885479	0.8012991000122514	0.8012991000122047	-0.107407258115196	-0.1745194837151955	0.07122606827697502	-0.007225126379534244	-0.2094532292871281	-0.2022846850840184	-0.3420809220237132	1.488531188324091	-0.03875568916246487	0.4522246955795796	-0.8235607090035295	1.421786947681609	1.421786947681208	0.1288761907475175	0.000237846860964506	0.2328201155729441	0.03136680250837403	-0.2884583857499809	0.01821280749215146	-0.003548754830355707	-0.2130921222032651	0.1162198677516155	0.05200714558930707	0.3356137034536623	-7.349359694120798	-22.71226937267881	4.779933665842631	-9.669488833267199	-706.6369401100754	-78.83001750291677	-14.42452107774458	0.2958008980011483	0.6552386242766193	-0.07452657651215175	-1.546061557035116	0.2081853480515803	-0.3966070197142928	1.726135381779637	-1.225516905825808	-1.225516905835788	-0.3023297824517117	-0.00638970869668433	-0.03873685017132976	0.2166469537441733	-8.14716797854811e-08	-3.662818453896157e-07	2.770843790589432e-07	-1.802647082613232e-08	-1.004395096384864e-07	-3.744104538837632e-08	-9.072488364546632e-08
0.52	-0.1265753580592661	-0.06092830101868991	0.8172317659625853	0.9243163592117669	-0.3243775737616595	-0.1144233635910098	-0.7944585278201129	0.8154536272009969	0.8154536272005167	-0.1061333298471159	-0.1745171303657832	0.07355196947792153	-0.006900501888743989	-0.2063943378626815	-0.1957011594245497	-0.3425946011273551	1.472441868674205	-0.03663465919543283	0.4480912148729075	-0.8060220054080272	1.408905818938323	1.408905818937856	0.1259102485659103	0.0002211742748764121	0.2323134833285642	0.03354365500636702	-0.2950495942200404	0.01864930246490918	-0.003759572227060888	-0.215447518078341	0.1163367899406227	0.05240697315154123	0.341907095712506	-7.538391551069712	-22.80957592599546	4.746056058593708	-9.69820620446608	-710.6559166130272	-78.71996137541872	-13.89759086005174	0.3161956211002372	0.6613597197708414	-0.0280057271099686	-1.670648359531652	0.2202781296621719	-0.4255742331705131	1.781424744538251	-1.349537591781565	-1.349537591781517	-0.2852104772029823	0.01119084282188117	-0.06049233058743711	0.2239903414151999	-1.103380426034888e-07	-2.174177104078958e-07	5.187818682617914e-07	2.689001186428779e-08	-1.206720811953512e-07	-2.048992935283487e-08	-1.016896760043697e-07
0.53	-0.1286232479115406	-0.06285219803970619	0.8138051849694243	0.9389550683811885	-0.3247334741171346	-0.1099637524812076	-0.8024288739646118	0.8294729008232794	0.8294729008228785	-0.1048899789579525	-0.1745145317359874	0.0758713139075701	-0.006554724003668202	-0.2031570998633616	-0.1890746282860184	-0.3426422312296636	1.455093721201241	-0.03454892228831567	0.4437602896806793	-0.7879688156152684	1.394731502068816	1.394731502068795	0.1227583274165208	0.000286740622256097	0.2315023516408433	0.03559278964444133	-0.3013840652127414	0.01899607560997395	-0.003962998125884036	-0.2179029203787881	0.1164166591046451	0.05269677643253627	0.3479392117809397	-7.742645859504909	-22.8543740306249	4.701454332113791	-9.615895306522264	-714.6075738191377	-78.55316199261975	-13.36839504081527	0.3314544814645454	0.6638523812197152	0.0187370296116239	-1.797851242080647	0.2021244527334476	-0.4475603970550115	1.829027278174108	-1.483967762189167	-1.483967762122355	-0.3304283083096953	0.00259762612582277	-0.09938348927784628	0.1924520242035404	-1.231313461058833e-07	-1.200657337592279e-07	6.459429281951291e-07	5.232370149592035e-08	-1.268914105675548e-07	-5.435032932816183e-09	-1.048295103269272e-07
0.54	-0.1306379720653997	-0.06470971923527215	0.8103805034115209	0.953414105415701	-0.3250686365072379	-0.1055495923702909	-0.8102163359748772	0.8433439134713399	0.8433439134710156	-0.1036781963551935	-0.1745116058236242	0.07818095504005874	-0.006189039372371669	-0.1997611981793689	-0.1824259943344861	-0.3422147140758583	1.436507441692203	-0.03248706612132016	0.4390010150962108	-0.7694451785613278	1.379253624093148	1.379253624093572	0.1195965912870218	0.0002866307868276672	0.2303728238965846	0.03752500425051532	-0.3077185362054346	0.0193428487550368	-0.004166424024761936	-0.2203583226792325	0.1164965282686665	0.05298657971352956	0.3539713278493808	-7.950659458574575	-22.89942627901223	4.657935791067497	-9.562137773703174	-718.641293058418	-78.42408674659896	-12.83778397693353	0.3479283580348436	0.6657802823710161	0.06702372411279171	-1.918274766746276	0.2155019816378375	-0.5112441116185664	1.875514196774699	-1.610249813014048	-1.610249813014057	-0.2871734732248644	-0.00194439373974871	-0.1241715418950344	0.2006063350151273	-1.181416903654714e-07	-7.970593228755435e-08	6.463828323409214e-07	5.620196050931961e-08	-1.176067273099204e-07	7.521918380666675e-09	-9.931194426884641e-08
0.55	-0.1326179906374456	-0.06650069362530926	0.806962484690527	0.9676812060048079	-0.3253832911098897	-0.1011848359136452	-0.8178162937645667	0.8570537015206537	0.8570537015207286	-0.1024982150297444	-0.1745087581850961	0.08047774119968877	-0.005804605401596354	-0.1962183156362391	-0.1757698922537987	-0.3413078223468578	1.416710530205184	-0.03045202559563279	0.4338974764152074	-0.7504789138286579	1.362489264658002	1.362489264658232	0.1163824650013966	0.0002816371177041668	0.2289316794209234	0.03933721761303492	-0.313842050093588	0.01960211025776238	-0.004344763027479205	-0.2228541888214292	0.1165348274597471	0.05317616046823571	0.3597867987088339	-8.17195542906811	-22.89685213882971	4.604797336793092	-9.430560468326204	-722.5811028189399	-78.23631112179737	-12.30670781071639	0.3610854770449107	0.6653855471875443	0.1146805552160554	-2.040737225582572	0.1961980434869874	-0.5179186738409131	1.917302443751803	-1.741717915051312	-1.741717915080392	-0.3411059806216106	0.0001629124699270351	-0.1619940351084746	0.167776659139184	-1.111393865449261e-07	-4.561194013669466e-08	6.344013023619272e-07	5.720012848081741e-08	-1.058382333173683e-07	1.921865537495141e-08	-9.306391408496439e-08
0.5600000000000001	-0.1345618569291426	-0.0682251349192856	0.8035559666184077	0.9817442699018654	-0.325677856716193	-0.09687271682930937	-0.8252245649404815	0.8705894081943608	0.8705894081948291	-0.1013508897220355	-0.1745059725300614	0.08275853428762105	-0.005402799732742074	-0.1925307421093901	-0.1691193751223307	-0.3399145843009639	1.395700103282052	-0.0284692668518349	0.428473540634218	-0.7311078558064376	1.3444373489714	1.344437348971436	0.1130653877401624	0.0002742340873238227	0.2271742095569895	0.04099934386630698	-0.3199655639817314	0.01986137176049136	-0.004523102030229777	-0.2253500549636234	0.1165731266508282	0.0533657412229462	0.3656022695682951	-8.397724151419453	-22.894387264332	4.552696162219145	-9.324847491549768	-726.6118013935178	-78.08565074646638	-11.77623092455691	0.3768665547787526	0.6646632925270864	0.1642929874914504	-2.160977853968728	0.2050456252599353	-0.5753235316157425	1.956472854684802	-1.86776106330528	-1.867761063305269	-0.3077636683466514	-0.002426265991122945	-0.1874366195495932	0.1705889131656048	-1.017219050282208e-07	-1.903691917081139e-08	6.075140514331893e-07	5.474218720203356e-08	-9.108916644291507e-08	2.940313518619844e-08	-8.593932695012088e-08
